HIERARCHY
ROOT CG
{
	OFFSET 0.000000 0.000000 27.772259
	CHANNELS 6 Xposition Yposition Zposition Xrotation Yrotation Zrotation
	JOINT Pelvis
	{
		OFFSET 0.000000 0.000000 0.000000
		CHANNELS 3 Xrotation Yrotation Zrotation
		JOINT Spine
		{
			OFFSET -0.000017 -10.490843 -0.495483
			CHANNELS 3 Xrotation Yrotation Zrotation
			JOINT Spine1
			{
				OFFSET -0.000010 -22.678980 0.018061
				CHANNELS 3 Xrotation Yrotation Zrotation
				JOINT Spine2
				{
					OFFSET -0.000010 -22.678967 0.018061
					CHANNELS 3 Xrotation Yrotation Zrotation
					JOINT Spine3
					{
						OFFSET -0.000010 -22.678982 0.018059
						CHANNELS 3 Xrotation Yrotation Zrotation
						JOINT Neck
						{
							OFFSET -0.000012 -22.678986 -1.289251
							CHANNELS 3 Xrotation Yrotation Zrotation
							JOINT Neck1
							{
								OFFSET -0.000007 -16.255905 0.012947
								CHANNELS 3 Xrotation Yrotation Zrotation
								JOINT Head
								{
									OFFSET -0.000005 -10.784607 -0.287502
									CHANNELS 3 Xrotation Yrotation Zrotation
									JOINT Jaw01
									{
										OFFSET 0.000031 7.782959 5.073944
										CHANNELS 3 Xrotation Yrotation Zrotation
										JOINT Jaw02
										{
											OFFSET 0.000004 -34.927139 -18.883980
											CHANNELS 3 Xrotation Yrotation Zrotation
											End Site
											{
												OFFSET -0.000170 8.372803 -38.812450
											}
										}
									}
									JOINT Nose
									{
										OFFSET -0.000002 -25.700912 7.222265
										CHANNELS 3 Xrotation Yrotation Zrotation
										End Site
										{
											OFFSET -0.000090 0.641281 -21.715439
										}
									}
									JOINT L_EyeSocket
									{
										OFFSET 7.352326 -19.832718 14.164183
										CHANNELS 3 Xrotation Yrotation Zrotation
										JOINT L_Eye
										{
											OFFSET -0.000868 -0.001053 0.016003
											CHANNELS 3 Xrotation Yrotation Zrotation
											End Site
											{
												OFFSET -0.001505 -0.001846 0.027969
											}
										}
										JOINT L_Eyelid_Top
										{
											OFFSET -0.001004 -0.002625 0.032516
											CHANNELS 3 Xrotation Yrotation Zrotation
											End Site
											{
												OFFSET -0.013218 0.005753 0.024086
											}
										}
										JOINT L_Eyelid_Bottom
										{
											OFFSET -0.001194 -0.002777 0.035381
											CHANNELS 3 Xrotation Yrotation Zrotation
											End Site
											{
												OFFSET -0.010032 0.008636 -0.024754
											}
										}
									}
									JOINT R_EyeSocket
									{
										OFFSET -7.352252 -19.832748 14.164206
										CHANNELS 3 Xrotation Yrotation Zrotation
										JOINT R_Eye
										{
											OFFSET 0.000875 -0.001068 0.015991
											CHANNELS 3 Xrotation Yrotation Zrotation
											End Site
											{
												OFFSET 0.001505 -0.001846 0.027962
											}
										}
										JOINT R_Eyelid_Top
										{
											OFFSET 0.001021 -0.002625 0.032516
											CHANNELS 3 Xrotation Yrotation Zrotation
											End Site
											{
												OFFSET 0.013214 0.005753 0.024078
											}
										}
										JOINT R_Eyelid_Bottom
										{
											OFFSET 0.001170 -0.002762 0.035366
											CHANNELS 3 Xrotation Yrotation Zrotation
											End Site
											{
												OFFSET 0.010029 0.008636 -0.024746
											}
										}
									}
								}
								JOINT Neck_Fat
								{
									OFFSET 0.000044 -9.595100 -17.491512
									CHANNELS 3 Xrotation Yrotation Zrotation
									End Site
									{
										OFFSET -0.000036 15.369423 -0.000007
									}
								}
							}
						}
						JOINT L_Clavicle
						{
							OFFSET 4.567107 -11.666092 -3.750029
							CHANNELS 3 Xrotation Yrotation Zrotation
							JOINT L_UpperArm
							{
								OFFSET 20.725666 -0.000053 -0.000032
								CHANNELS 3 Xrotation Yrotation Zrotation
								JOINT L_Forearm
								{
									OFFSET 5.265112 -0.585754 -20.155697
									CHANNELS 3 Xrotation Yrotation Zrotation
									JOINT L_Hand
									{
										OFFSET 2.653017 -10.877708 -16.383667
										CHANNELS 3 Xrotation Yrotation Zrotation
										JOINT L_Finger0
										{
											OFFSET -4.206146 -4.328911 -5.034346
											CHANNELS 3 Xrotation Yrotation Zrotation
											JOINT L_Finger01
											{
												OFFSET 0.084272 -1.788536 -4.181065
												CHANNELS 3 Xrotation Yrotation Zrotation
												End Site
												{
													OFFSET 3.261885 3.094673 -0.685818
												}
											}
										}
										JOINT L_Finger1
										{
											OFFSET -1.039112 -6.775742 -3.499998
											CHANNELS 3 Xrotation Yrotation Zrotation
											JOINT L_Finger11
											{
												OFFSET 1.320335 -3.040672 -6.425793
												CHANNELS 3 Xrotation Yrotation Zrotation
												End Site
												{
													OFFSET -1.244579 6.832077 -2.013330
												}
											}
										}
										JOINT L_Finger2
										{
											OFFSET 2.531296 -5.656487 -3.286415
											CHANNELS 3 Xrotation Yrotation Zrotation
											JOINT L_Finger21
											{
												OFFSET 1.991665 -2.402016 -5.957748
												CHANNELS 3 Xrotation Yrotation Zrotation
												End Site
												{
													OFFSET -2.793068 5.800873 -1.944178
												}
											}
										}
										JOINT L_Finger3
										{
											OFFSET 5.474075 -3.302338 -2.655975
											CHANNELS 3 Xrotation Yrotation Zrotation
											JOINT L_Finger31
											{
												OFFSET 2.026943 -1.267532 -5.961166
												CHANNELS 3 Xrotation Yrotation Zrotation
												End Site
												{
													OFFSET -4.375172 4.343658 -1.800320
												}
											}
										}
										JOINT L_Finger4
										{
											OFFSET 4.825745 1.085899 -2.321970
											CHANNELS 3 Xrotation Yrotation Zrotation
											JOINT L_Finger41
											{
												OFFSET 3.358261 -1.829651 -3.744434
												CHANNELS 3 Xrotation Yrotation Zrotation
												End Site
												{
													OFFSET -3.843296 2.955200 -2.267633
												}
											}
										}
									}
								}
							}
						}
						JOINT R_Clavicle
						{
							OFFSET -4.567111 -11.666092 -3.750036
							CHANNELS 3 Xrotation Yrotation Zrotation
							JOINT R_UpperArm
							{
								OFFSET -20.725670 -0.000031 0.000038
								CHANNELS 3 Xrotation Yrotation Zrotation
								JOINT R_Forearm
								{
									OFFSET -5.265285 -0.585762 -20.155655
									CHANNELS 3 Xrotation Yrotation Zrotation
									JOINT R_Hand
									{
										OFFSET -2.653147 -10.877739 -16.383663
										CHANNELS 3 Xrotation Yrotation Zrotation
										JOINT R_Finger0
										{
											OFFSET 4.206116 -4.328888 -5.034388
											CHANNELS 3 Xrotation Yrotation Zrotation
											JOINT R_Finger01
											{
												OFFSET -0.084324 -1.788544 -4.181051
												CHANNELS 3 Xrotation Yrotation Zrotation
												End Site
												{
													OFFSET -3.261890 3.094666 -0.685791
												}
											}
										}
										JOINT R_Finger1
										{
											OFFSET 1.039101 -6.775711 -3.499994
											CHANNELS 3 Xrotation Yrotation Zrotation
											JOINT R_Finger11
											{
												OFFSET -1.320374 -3.040672 -6.425779
												CHANNELS 3 Xrotation Yrotation Zrotation
												End Site
												{
													OFFSET 1.244556 6.832077 -2.013342
												}
											}
										}
										JOINT R_Finger2
										{
											OFFSET -2.531307 -5.656464 -3.286409
											CHANNELS 3 Xrotation Yrotation Zrotation
											JOINT R_Finger21
											{
												OFFSET -1.991707 -2.402016 -5.957708
												CHANNELS 3 Xrotation Yrotation Zrotation
												End Site
												{
													OFFSET 2.793037 5.800858 -1.944197
												}
											}
										}
										JOINT R_Finger3
										{
											OFFSET -5.474091 -3.302330 -2.655947
											CHANNELS 3 Xrotation Yrotation Zrotation
											JOINT R_Finger31
											{
												OFFSET -2.026993 -1.267532 -5.961157
												CHANNELS 3 Xrotation Yrotation Zrotation
												End Site
												{
													OFFSET 4.375156 4.343674 -1.800358
												}
											}
										}
										JOINT R_Finger4
										{
											OFFSET -4.825756 1.085922 -2.321926
											CHANNELS 3 Xrotation Yrotation Zrotation
											JOINT R_Finger41
											{
												OFFSET -3.358307 -1.829651 -3.744390
												CHANNELS 3 Xrotation Yrotation Zrotation
												End Site
												{
													OFFSET 3.843273 2.955208 -2.267666
												}
											}
										}
									}
								}
							}
						}
					}
				}
			}
		}
		JOINT Tail01
		{
			OFFSET -0.000010 10.922326 -0.017508
			CHANNELS 3 Xrotation Yrotation Zrotation
			JOINT Tail02
			{
				OFFSET -0.000022 21.986111 0.000013
				CHANNELS 3 Xrotation Yrotation Zrotation
				JOINT Tail03
				{
					OFFSET -0.000022 21.986118 0.000002
					CHANNELS 3 Xrotation Yrotation Zrotation
					JOINT Tail04
					{
						OFFSET -0.000022 21.986122 0.000004
						CHANNELS 3 Xrotation Yrotation Zrotation
						JOINT Tail05
						{
							OFFSET -0.000022 21.986099 0.000010
							CHANNELS 3 Xrotation Yrotation Zrotation
							JOINT Tail06
							{
								OFFSET -0.000022 21.986099 0.000006
								CHANNELS 3 Xrotation Yrotation Zrotation
								JOINT Tail07
								{
									OFFSET -0.000022 21.986099 0.000000
									CHANNELS 3 Xrotation Yrotation Zrotation
									JOINT Tail08
									{
										OFFSET -0.000022 21.984848 0.000050
										CHANNELS 3 Xrotation Yrotation Zrotation
										JOINT Tail09
										{
											OFFSET -0.000025 21.926025 -1.606211
											CHANNELS 3 Xrotation Yrotation Zrotation
											JOINT Tail10
											{
												OFFSET -0.000027 21.750092 -3.203882
												CHANNELS 3 Xrotation Yrotation Zrotation
												End Site
												{
													OFFSET -0.000036 4.767395 21.461668
												}
											}
										}
									}
								}
							}
						}
					}
				}
			}
		}
		JOINT L_Thigh
		{
			OFFSET 24.788780 0.000021 -0.000034
			CHANNELS 3 Xrotation Yrotation Zrotation
			JOINT L_Calf
			{
				OFFSET 4.720837 4.161326 -21.049969
				CHANNELS 3 Xrotation Yrotation Zrotation
				JOINT L_Foot
				{
					OFFSET 2.154160 21.114433 -11.949743
					CHANNELS 3 Xrotation Yrotation Zrotation
					JOINT L_Toe0
					{
						OFFSET 4.557564 9.251841 -8.735286
						CHANNELS 3 Xrotation Yrotation Zrotation
						End Site
						{
							OFFSET 4.555542 -12.646044 1.018752
						}
					}
					JOINT L_Toe1
					{
						OFFSET 2.346291 5.845602 -11.687160
						CHANNELS 3 Xrotation Yrotation Zrotation
						End Site
						{
							OFFSET 5.347954 -12.298279 1.365644
						}
					}
					JOINT L_Toe2
					{
						OFFSET -0.356020 3.902458 -12.541145
						CHANNELS 3 Xrotation Yrotation Zrotation
						End Site
						{
							OFFSET 3.916235 -12.806129 1.542549
						}
					}
					JOINT L_Toe3
					{
						OFFSET -4.603447 3.183935 -12.435249
						CHANNELS 3 Xrotation Yrotation Zrotation
						End Site
						{
							OFFSET 3.810858 -12.587427 2.957583
						}
					}
					JOINT L_Toe4
					{
						OFFSET -7.144358 6.231495 -10.072764
						CHANNELS 3 Xrotation Yrotation Zrotation
						End Site
						{
							OFFSET 3.810858 -12.587425 2.957585
						}
					}
				}
			}
		}
		JOINT R_Thigh
		{
			OFFSET -24.788780 -0.000024 0.000034
			CHANNELS 3 Xrotation Yrotation Zrotation
			JOINT R_Calf
			{
				OFFSET -4.720922 4.161324 -21.049952
				CHANNELS 3 Xrotation Yrotation Zrotation
				JOINT R_Foot
				{
					OFFSET -2.154238 21.114414 -11.949730
					CHANNELS 3 Xrotation Yrotation Zrotation
					JOINT R_Toe0
					{
						OFFSET -4.557598 9.251823 -8.735270
						CHANNELS 3 Xrotation Yrotation Zrotation
						End Site
						{
							OFFSET -4.555508 -12.646051 1.018756
						}
					}
					JOINT R_Toe1
					{
						OFFSET -2.346325 5.845589 -11.687157
						CHANNELS 3 Xrotation Yrotation Zrotation
						End Site
						{
							OFFSET -5.347919 -12.298286 1.365654
						}
					}
					JOINT R_Toe2
					{
						OFFSET 0.355980 3.902462 -12.541145
						CHANNELS 3 Xrotation Yrotation Zrotation
						End Site
						{
							OFFSET -3.916199 -12.806131 1.542559
						}
					}
					JOINT R_Toe3
					{
						OFFSET 4.603411 3.183941 -12.435266
						CHANNELS 3 Xrotation Yrotation Zrotation
						End Site
						{
							OFFSET -3.810825 -12.587429 2.957591
						}
					}
					JOINT R_Toe4
					{
						OFFSET 7.144323 6.231503 -10.072779
						CHANNELS 3 Xrotation Yrotation Zrotation
						End Site
						{
							OFFSET -3.810825 -12.587433 2.957584
						}
					}
				}
			}
		}
	}
}
MOTION
Frames: 5
Frame Time: 0.033333
12.000000 -0.000001 36.000000 -0.000000 0.000000 -0.000051 -4.964243 -0.000074 13.456096 3.765055 -3.902733 -3.660297 5.513518 -4.055066 -4.656358 5.210520 -3.589660 -5.546262 5.965838 -3.170592 -8.208986 -0.041131 -0.165541 -3.129920 -3.257514 3.148751 -2.739343 18.364393 10.141992 -3.663536 -17.253314 -0.000019 0.000025 0.000020 -0.000001 -0.000000 0.000025 0.000001 0.000001 -0.000007 0.000006 -0.000013 0.000130 -0.000076 0.000020 0.000007 0.000005 -0.000001 0.000003 0.000007 0.000004 -0.000002 -0.000001 -0.000000 0.000129 0.000081 -0.000020 -0.000001 -0.000001 -0.000000 -0.000017 0.000000 -0.000009 -0.000001 0.000007 0.000000 0.000520 13.386945 10.696921 70.538615 -12.851139 -10.199825 -15.854978 3.046071 -3.842278 22.704531 -2.712488 -35.661377 17.515458 -3.433412 -0.020903 8.941346 -5.638876 0.726227 8.824671 1.946059 0.776748 8.824671 1.946061 0.776751 7.978800 4.238635 0.694304 7.978830 4.238636 0.694313 6.213811 6.597696 0.363289 6.213811 6.597706 0.363287 5.100416 7.461118 0.645472 5.100352 7.461101 0.645509 0.001482 -18.440590 -11.352635 72.420209 26.411588 -38.266258 -6.349033 -1.086944 1.632871 0.895977 -0.694651 14.742219 6.817901 -7.694813 4.439565 -4.449564 -8.290408 5.013568 -10.859427 2.186529 1.345331 -10.859425 2.186532 1.345333 -9.885897 4.998702 1.647501 -9.885886 4.998689 1.647503 -7.745930 7.971606 1.426298 -7.745958 7.971611 1.426277 -6.442759 9.018783 1.709104 -6.442750 9.018782 1.709098 -2.924308 0.693613 2.318909 -2.894485 0.809021 -1.069713 -5.211792 1.349837 5.718554 -5.052391 1.854250 4.628126 -4.889352 2.249450 0.268225 -4.883440 2.266578 -3.368093 -2.798474 1.098715 -6.061670 -2.895808 0.227468 -7.820027 -3.260799 -1.333801 -11.840128 -3.810188 -3.417206 -14.425795 24.933182 0.477271 8.772139 13.302966 0.723981 2.990217 40.017286 20.159933 8.268312 14.852689 6.555528 4.804983 14.878956 7.495075 3.294764 16.253470 5.330667 0.860198 16.540722 4.471539 -1.840440 16.255753 3.122912 -5.011552 44.597386 -1.293113 5.371517 -2.981487 0.065718 0.686960 40.166939 2.877294 -9.155728 -0.000020 -0.000008 -0.000011 0.000001 0.000004 -0.000002 0.000011 -0.000004 -0.000003 -0.000004 -0.000000 -0.000000 -0.000014 0.000003 -0.000002 
13.865177 -0.000002 36.000000 -0.000000 0.000000 -0.000051 -4.946318 -0.009760 12.439171 3.658843 -4.198401 -4.671578 5.459296 -3.921968 -4.820331 5.200570 -3.479819 -5.410735 6.168516 -3.043349 -7.143676 -0.037778 -0.129437 -2.522415 -3.303147 3.275639 -1.791234 18.609825 10.077288 -4.090116 -17.253312 -0.000021 0.000026 0.000021 -0.000000 -0.000001 0.000026 0.000002 0.000000 -0.000004 0.000009 -0.000015 0.000128 -0.000081 0.000016 0.000005 -0.000001 -0.000001 0.000003 0.000000 0.000006 -0.000002 -0.000000 -0.000002 0.000129 0.000082 -0.000020 -0.000000 0.000001 -0.000000 -0.000009 0.000003 -0.000006 0.000002 0.000007 0.000001 0.000480 13.614253 10.990470 70.176669 -13.291850 -8.555959 -14.830607 2.817023 -3.619387 22.015137 -0.675086 -33.941194 16.913336 -2.853660 -0.313317 7.837681 -4.601157 0.158194 7.287267 1.600108 0.667373 7.288043 1.598646 0.663056 6.589672 3.493595 0.615766 6.589693 3.493600 0.615781 5.129587 5.445580 0.351492 5.129587 5.445598 0.351487 4.213092 6.157087 0.580522 4.213032 6.157070 0.580565 0.000826 -18.353225 -11.159079 72.839200 25.478732 -36.330722 -8.478308 -1.492387 2.154027 1.540139 -1.125640 14.839102 7.292441 -7.166494 4.288410 -3.980606 -7.758706 4.861320 -10.136802 2.049950 1.244249 -10.136925 2.049706 1.243388 -9.225912 4.673674 1.504612 -9.223669 4.676502 1.511289 -7.225156 7.447315 1.288783 -7.222132 7.449313 1.297414 -6.002944 8.426860 1.563002 -6.002938 8.426857 1.562995 -2.922478 0.615428 2.442147 -2.904008 0.701551 -0.455522 -5.201633 1.169560 5.991791 -5.053508 1.606372 5.194972 -4.927541 1.960993 1.363555 -4.945211 1.976706 -1.910113 -2.832809 0.949173 -4.428290 -2.754565 1.261616 -6.216095 -2.515071 1.163424 -10.469454 -1.952961 0.341065 -13.804802 26.089338 0.769424 7.533739 12.119658 0.631545 2.731566 39.604316 19.070266 8.738592 14.992740 6.617625 4.842191 15.021194 7.567126 3.309385 16.407612 5.381296 0.858553 16.697946 4.512237 -1.860558 16.411058 3.144240 -5.062637 43.828596 -1.045811 3.616951 -2.237333 0.052668 0.515215 41.689084 0.978444 -8.358542 -0.000018 -0.000008 -0.000006 0.000001 0.000004 -0.000000 0.000027 0.000105 -0.000013 -0.000003 -0.000001 -0.000000 -0.000012 0.000000 -0.000002 
15.274810 -0.000002 36.000000 -0.000000 0.000000 -0.000051 -4.936395 0.037948 10.457242 3.628316 -4.498604 -4.735511 5.398939 -3.815420 -5.022679 5.183923 -3.394917 -5.297368 6.367900 -2.931414 -6.074951 -0.035181 -0.092033 -1.930857 -3.350904 3.457977 -0.823458 18.860070 10.011022 -4.534148 -17.253314 -0.000018 0.000025 0.000020 -0.000000 -0.000000 0.000023 0.000001 -0.000002 -0.000009 0.000006 -0.000020 0.000133 -0.000076 0.000017 0.000012 0.000005 -0.000001 0.000006 0.000004 0.000002 -0.000004 -0.000001 -0.000005 0.000123 0.000080 -0.000023 -0.000003 -0.000006 0.000000 -0.000012 0.000000 -0.000006 0.000000 0.000008 0.000001 0.000443 14.042460 11.502095 69.621525 -14.606050 -5.510922 -13.309986 2.484726 -3.281413 20.633378 3.585726 -30.324247 15.862652 -1.828837 -0.816215 5.944463 -2.773156 -0.779750 4.615060 1.000263 0.444308 4.614726 1.002197 0.443335 4.174033 2.202786 0.435105 4.173634 2.203290 0.436371 3.248635 3.442625 0.275564 3.247482 3.443353 0.279020 2.669855 3.892740 0.420615 2.670552 3.892309 0.419752 0.001321 -18.226121 -11.040753 73.661985 24.833871 -33.901572 -11.044856 -2.007285 2.762821 2.381820 -1.816461 14.544007 7.902752 -6.497563 4.072349 -3.375787 -7.082999 4.653798 -9.210566 1.872383 1.115148 -9.210560 1.872326 1.115168 -8.375134 4.266688 1.337945 -8.375736 4.260946 1.342133 -6.552762 6.777638 1.139368 -6.552785 6.777649 1.139366 -5.441922 7.665944 1.382617 -5.441911 7.665954 1.382604 -2.920554 0.530130 2.626129 -2.912400 0.591154 0.272499 -5.187472 0.974236 6.234180 -5.049013 1.350778 5.727718 -4.955160 1.661689 2.450372 -4.995351 1.673523 -0.421557 -2.862757 0.793479 -2.734019 -2.758161 1.224535 -4.512288 -2.508833 1.318737 -8.652301 -1.951215 0.749652 -12.175892 27.327268 1.426193 7.001422 10.816469 0.535975 2.444667 39.280961 17.877305 9.309311 15.152792 6.701974 4.885531 15.179576 7.662831 3.341732 16.586648 5.442279 0.861831 16.882187 4.556043 -1.891316 16.594611 3.162297 -5.121129 42.998749 -0.208369 2.408358 -1.471094 0.036897 0.338550 43.547452 -0.990606 -7.561192 -0.000019 -0.000007 -0.000008 -0.000000 0.000003 0.000001 0.000120 0.000390 -0.000047 -0.000002 0.000001 -0.000003 -0.000012 0.000004 0.000001 
16.764982 -0.000002 36.000000 -0.000000 0.000000 -0.000051 -4.928325 0.092872 8.342872 3.616300 -4.796149 -4.661885 5.338734 -3.712263 -5.230010 5.168021 -3.313769 -5.186919 6.564642 -2.817303 -5.008725 -0.033372 -0.055238 -1.342653 -3.402828 3.646646 0.146926 19.127330 9.932255 -4.976384 -17.253312 -0.000020 0.000023 0.000020 0.000000 -0.000001 0.000022 0.000000 0.000000 -0.000006 0.000007 -0.000017 0.000128 -0.000077 0.000013 0.000004 0.000000 -0.000002 0.000006 0.000005 0.000009 -0.000002 -0.000001 -0.000000 0.000123 0.000080 -0.000020 0.000001 -0.000003 0.000005 -0.000014 0.000001 -0.000006 0.000001 0.000007 0.000001 0.009417 14.508850 12.050922 69.134355 -16.102564 -2.205004 -11.696550 2.142439 -2.913784 18.838526 8.031077 -26.226361 14.740416 -0.713571 -1.335940 3.961237 -0.786333 -1.721457 1.757516 0.372784 0.174902 1.756256 0.376991 0.178137 1.589295 0.834313 0.184859 1.589303 0.834321 0.184870 1.237389 1.307495 0.127096 1.236723 1.307923 0.129092 1.018639 1.478292 0.180951 1.018606 1.478265 0.180968 0.002058 -18.089517 -10.937986 74.612160 24.254849 -31.389319 -13.688608 -2.566644 3.366469 3.299934 -2.572036 14.183316 8.543225 -5.796120 3.848254 -2.739308 -6.375269 4.430957 -8.238928 1.683975 0.983606 -8.238906 1.683972 0.983726 -7.488730 3.819889 1.169371 -7.487677 3.822202 1.171349 -5.853932 6.070413 0.980334 -5.853291 6.070851 0.982223 -4.856769 6.865573 1.201702 -4.856758 6.865574 1.201690 -2.918005 0.438139 2.842993 -2.918696 0.478486 1.089421 -5.170627 0.765888 6.526846 -5.038291 1.086300 6.212085 -4.969080 1.354389 3.403448 -5.028479 1.360554 0.891808 -2.885159 0.633715 -1.151675 -2.757715 1.176567 -2.767442 -2.502228 1.481043 -6.628517 -1.953084 1.194185 -10.211952 28.586509 2.208426 6.451007 9.434567 0.441825 2.138269 38.976632 16.590926 10.030181 15.626780 6.934315 5.013339 15.660227 7.912113 3.414665 17.114390 5.617236 0.863861 17.421955 4.691336 -1.973812 17.124621 3.241982 -5.300790 42.122210 0.735928 1.189448 -0.684619 0.018252 0.157448 45.776389 -2.958693 -6.735882 -0.000017 -0.000008 -0.000005 0.000002 0.000001 0.000005 0.000243 0.000805 -0.000096 0.000000 -0.000001 0.000001 -0.000008 0.000008 0.000003 
18.165443 -0.000002 36.000000 -0.000000 0.000000 -0.000051 -4.917356 0.152819 6.133058 3.618852 -5.087516 -4.471824 5.289719 -3.581204 -5.396101 5.161150 -3.206933 -5.052865 6.754412 -2.678603 -3.951052 -0.032344 -0.020971 -0.738393 -3.456636 3.775683 1.095125 19.423825 9.830037 -5.389783 -17.253314 -0.000020 0.000024 0.000017 -0.000001 -0.000000 0.000016 0.000000 0.000000 -0.000004 0.000008 -0.000020 0.000132 -0.000078 0.000013 0.000007 0.000004 -0.000004 0.000004 0.000004 -0.000000 -0.000001 -0.000000 -0.000004 0.000124 0.000080 -0.000020 -0.000001 -0.000002 -0.000000 -0.000012 -0.000000 -0.000006 0.000002 0.000008 -0.000002 0.005299 14.948371 12.580591 68.796322 -17.331202 0.780785 -10.110971 1.816631 -2.543738 17.109699 10.328329 -22.259532 13.680369 0.360876 -1.805145 2.333615 0.889885 -2.445254 -0.621944 -0.136824 -0.071955 -0.623509 -0.132441 -0.065979 -0.566934 -0.291985 -0.064239 -0.564615 -0.294779 -0.071151 -0.439563 -0.463399 -0.052590 -0.439570 -0.463403 -0.052594 -0.362590 -0.523757 -0.070534 -0.362602 -0.523769 -0.070523 0.001708 -17.928017 -10.867392 75.573496 23.958593 -28.802235 -16.318200 -3.151061 3.941919 4.842562 -3.439803 13.592396 9.269037 -5.004799 3.589316 -2.024013 -5.590022 4.173538 -7.154603 1.470849 0.840073 -7.154491 1.471041 0.840759 -6.498578 3.327476 0.988667 -6.498028 3.329217 0.988815 -5.074051 5.280319 0.821680 -5.075482 5.279395 0.817217 -4.207548 5.969702 1.010170 -4.207423 5.969698 1.009737 -2.914361 0.346346 2.992646 -2.921548 0.364335 1.875628 -5.150435 0.549863 6.826906 -5.022074 0.811542 6.710983 -4.973367 1.036665 4.350629 -5.050930 1.041130 2.190284 -2.900893 0.472030 0.379627 -2.751021 1.129333 -1.092841 -2.493329 1.628996 -4.624858 -1.960700 1.624343 -8.167165 29.849177 3.081722 5.875264 7.998075 0.351852 1.817571 38.718085 15.231351 10.864428 16.365302 7.299056 5.211509 16.406492 8.315883 3.523939 17.937847 5.892729 0.864231 18.266229 4.897676 -2.105146 17.952819 3.359736 -5.584422 41.199196 1.741144 -0.021387 0.110506 -0.003126 -0.025387 48.308401 -4.848406 -5.924103 0.000209 0.000705 -0.000052 0.000003 0.000003 -0.000000 0.000404 0.001298 -0.000163 -0.000127 -0.000419 0.000098 -0.000010 0.000012 0.000001 
